<svg xmlns="http://www.w3.org/2000/svg" xmlns:xlink="http://www.w3.org/1999/xlink" viewBox="0 0 512 512" id="water"><defs><linearGradient id="a" x1="155.791" x2="155.791" y1="38.769" y2="468.074" gradientUnits="userSpaceOnUse"><stop offset="0" stop-color="#00efd1"></stop><stop offset="1" stop-color="#00acea"></stop></linearGradient><linearGradient id="b" x1="174.738" x2="174.738" y1="38.769" y2="468.074" xlink:href="#a"></linearGradient><linearGradient id="c" x1="343.962" x2="343.962" y1="38.769" y2="468.074" xlink:href="#a"></linearGradient><linearGradient id="d" x1="366.095" x2="366.095" y1="38.769" y2="468.074" xlink:href="#a"></linearGradient><linearGradient id="e" x1="382" x2="382" y1="38.769" y2="468.074" xlink:href="#a"></linearGradient><linearGradient id="f" x1="335" x2="335" y1="38.769" y2="468.074" xlink:href="#a"></linearGradient><linearGradient id="g" x1="288" x2="288" y1="38.769" y2="468.074" xlink:href="#a"></linearGradient><linearGradient id="h" x1="241" x2="241" y1="38.769" y2="468.074" xlink:href="#a"></linearGradient></defs><path fill="url(#a)" d="M226.343,216.382,162.29,127.236A7.9,7.9,0,0,0,155.8,124h0a7.909,7.909,0,0,0-6.494,3.227L85.244,216.18c-.15.208-.289.4-.418.619-13.237,22.709-13.078,50.284.425,73.784a81.107,81.107,0,0,0,141.152-.1c13.436-23.448,13.565-50.918.343-73.48C226.621,216.791,226.487,216.582,226.343,216.382Zm-13.822,66.142a65.105,65.105,0,0,1-113.4.075c-10.708-18.636-10.943-39.552-.662-57.445l57.32-79.646,57.34,79.893C223.379,243.148,223.166,263.948,212.521,282.524Z"></path><path fill="url(#b)" d="M194.174,243.686a8,8,0,0,0-8,8A30.8,30.8,0,0,1,155.3,282.352a8,8,0,0,0,0,16,46.823,46.823,0,0,0,46.872-46.666A8,8,0,0,0,194.174,243.686Z"></path><path fill="url(#c)" d="M425.285,356.386,350.461,252.234A7.9,7.9,0,0,0,343.967,249h0a7.905,7.905,0,0,0-6.493,3.225L262.644,356.144c-.149.208-.289.4-.418.619-15.217,26.106-15.03,57.816.5,84.845a93.4,93.4,0,0,0,162.554-.114c15.453-26.967,15.605-58.552.407-84.487C425.564,356.8,425.429,356.586,425.285,356.386ZM411.4,433.536a77.4,77.4,0,0,1-134.8.088c-12.765-22.217-13.027-47.165-.738-68.5L343.953,270.5l68.112,94.9C424.328,386.577,424.09,411.387,411.4,433.536Z"></path><path fill="url(#d)" d="M388.8,388.842a8,8,0,0,0-8,8,37.33,37.33,0,0,1-37.408,37.167,8,8,0,0,0,0,16A53.348,53.348,0,0,0,396.8,396.842,8,8,0,0,0,388.8,388.842Z"></path><path fill="url(#e)" d="M382 236a8 8 0 0 0 8-8V210a8 8 0 0 0-16 0v18A8 8 0 0 0 382 236zM382 180a8 8 0 0 0 8-8V78a8 8 0 0 0-16 0v94A8 8 0 0 0 382 180zM382 56a8 8 0 0 0 8-8V31a8 8 0 0 0-16 0V48A8 8 0 0 0 382 56z"></path><path fill="url(#f)" d="M335 216a8 8 0 0 0 8-8V127a8 8 0 0 0-16 0v81A8 8 0 0 0 335 216zM335 96a8 8 0 0 0 8-8V60a8 8 0 0 0-16 0V88A8 8 0 0 0 335 96z"></path><path fill="url(#g)" d="M288 237a8 8 0 0 0 8-8V188a8 8 0 0 0-16 0v41A8 8 0 0 0 288 237zM288 166a8 8 0 0 0 8-8V53a8 8 0 0 0-16 0V158A8 8 0 0 0 288 166z"></path><path fill="url(#h)" d="M241 103a8 8 0 0 0-8 8v71a8 8 0 0 0 16 0V111A8 8 0 0 0 241 103zM241 33a8 8 0 0 0-8 8V81a8 8 0 0 0 16 0V41A8 8 0 0 0 241 33z"></path></svg>