<svg aria-hidden="true" style="position: absolute; width: 0; height: 0; overflow: hidden;" version="1.1" xmlns="http://www.w3.org/2000/svg" xmlns:xlink="http://www.w3.org/1999/xlink">
<defs>

<symbol id="icon-close" viewBox="0 0 24 24">
    <path d="M18 6 6 18M6 6l12 12" stroke="#2F2F2F" stroke-width="2" stroke-linecap="round" stroke-linejoin="round"/>
</symbol>

<symbol id="icon-arrow-down" viewBox="0 0 32 32">
<path stroke-linejoin="round" stroke-linecap="round" stroke-miterlimit="4" stroke-width="3.2" d="M8 12l8 8 8-8"></path>
</symbol>

<symbol id="icon-glass" viewBox="0 0 28 32">
<path d="M28.361 2.088c-0.125-0.418-0.326-0.781-0.589-1.089l0.003 0.004c-0.262-0.308-0.584-0.557-0.948-0.73l-0.017-0.007c-0.365-0.177-0.765-0.266-1.171-0.261h-22.77c-0.039-0.002-0.085-0.004-0.131-0.004-0.379 0-0.737 0.092-1.052 0.256l0.013-0.006c-0.377 0.173-0.712 0.431-0.981 0.756-0.259 0.303-0.46 0.665-0.58 1.062l-0.005 0.021c-0.122 0.396-0.16 0.817-0.11 1.23l2.596 22.972c0.179 1.617 0.927 3.033 2.037 4.066l0.004 0.004c1.058 1.005 2.488 1.628 4.063 1.64h11.079c1.584-0.011 3.019-0.634 4.085-1.643l-0.003 0.003c1.098-1.045 1.838-2.457 2.023-4.038l0.003-0.031 1.407-12.912v-0.197l1.092-9.844c0.061-0.415 0.044-0.839-0.047-1.247zM12.379 27.275h-1.582c-1.076-0.067-2.038-0.504-2.772-1.185l0.003 0.003c-0.748-0.706-1.263-1.652-1.421-2.714l-0.003-0.026-0.38-2.822c-0.007-0.059-0.011-0.126-0.011-0.195 0-0.381 0.125-0.732 0.336-1.016l-0.003 0.005c0.255-0.343 0.63-0.569 1.044-0.628 0.066-0.010 0.143-0.016 0.22-0.016 0.359 0 0.69 0.122 0.953 0.326l-0.004-0.003c0.337 0.257 0.563 0.64 0.629 1.068l0.38 2.789c0.043 0.305 0.188 0.584 0.412 0.788 0.221 0.211 0.507 0.332 0.807 0.345h1.582c0.42 0 0.822 0.172 1.119 0.48s0.463 0.725 0.463 1.161-0.166 0.852-0.463 1.16c-0.283 0.295-0.679 0.479-1.119 0.48h-0.19zM25.037 12.13c-3.339 0.673-6.187 0.804-9.209-1.641-3.75-3.068-8.292-2.084-12.658-0.476l-0.791-6.956c-0.007-0.032-0.012-0.069-0.012-0.107s0.004-0.075 0.012-0.11l-0.001 0.003c0.022-0.071 0.060-0.132 0.11-0.18l0-0c0.037-0.060 0.091-0.106 0.156-0.131l0.002-0.001c0.062-0.018 0.128-0.018 0.189 0h22.976c0.061 0.036 0.113 0.080 0.158 0.131l0.001 0.001c0.046 0.049 0.079 0.11 0.095 0.178l0 0.003c0.011 0.034 0.018 0.074 0.018 0.115s-0.007 0.080-0.019 0.117l0.001-0.003-1.029 9.058z"></path>
</symbol>

<symbol id="icon-calendar-up" viewBox="0 0 32 32">
<path stroke-linejoin="round" stroke-linecap="round" stroke-miterlimit="4" stroke-width="6.4" d="M3.2 5.76c0-0.886 0-1.331 0.198-1.69 0.18-0.31 0.447-0.553 0.767-0.7l0.011-0.004c0.378-0.16 0.778-0.118 1.581-0.038 12.118 1.252 21.662 10.795 22.906 22.802l0.009 0.11c0.080 0.803 0.122 1.203-0.038 1.581-0.151 0.331-0.394 0.597-0.696 0.773l-0.008 0.004c-0.358 0.202-0.803 0.202-1.69 0.202h-20.48c-0.896 0-1.344 0-1.686-0.176-0.302-0.156-0.541-0.396-0.693-0.689l-0.004-0.009c-0.176-0.342-0.176-0.79-0.176-1.686v-20.48z"></path>
</symbol>

<symbol id="icon-point" viewBox="0 0 35 32">
<path stroke-linejoin="miter" stroke-linecap="butt" stroke-miterlimit="4" stroke-width="2.6667" d="M32 16c0 8.1-6.566 14.667-14.667 14.667s-14.667-6.566-14.667-14.667c0-8.1 6.566-14.667 14.667-14.667s14.667 6.566 14.667 14.667z"></path>
</symbol>

<symbol id="icon-arrow-up" viewBox="0 0 32 32">
<path stroke-linejoin="round" stroke-linecap="round" stroke-miterlimit="4" stroke-width="3.2" d="M8 20l8-8 8 8"></path>
</symbol>

<symbol id="upload-foto" viewBox="0 0 18 18">
    <path d="M15.75 11.25v3a1.5 1.5 0 0 1-1.5 1.5H3.75a1.5 1.5 0 0 1-1.5-1.5v-3M12.75 6 9 2.25 5.25 6M9 2.25v9" stroke="#323f47" fill="white" stroke-width="1.8" stroke-linecap="round" stroke-linejoin="round"/>
</symbol>

<symbol id="icon-minus-round" fill="white" stroke="#323f47"  viewBox="0 0 32 32">
<path stroke-linejoin="miter" stroke-linecap="butt" stroke-miterlimit="4" stroke-width="1.1163" d="M16 0.558c8.528 0 15.442 6.914 15.442 15.442s-6.914 15.442-15.442 15.442c-8.528 0-15.442-6.914-15.442-15.442s6.914-15.442 15.442-15.442z"></path>
<path  stroke-linejoin="round" stroke-linecap="round" stroke-miterlimit="4" stroke-width="1.3395" d="M10.285 16h11.428"></path>
</symbol>

<symbol id="icon-plus-round" viewBox="0 0 32 32">
    <circle cx="16" cy="16" r="15" fill="white" stroke="black" stroke-width="1.1163" />
    <line x1="10.285" y1="16" x2="21.715" y2="16" stroke="black" stroke-width="1.3395" />
    <line x1="16" y1="10.285" x2="16" y2="21.715" stroke="black" stroke-width="1.3395" />
</symbol>

<symbol id="znak-oklyky" viewBox="0 0 32 32">
<path d="M13.473 18.545c0.122 1.265 0.329 2.205 0.611 2.826 0.288 0.618 0.797 0.927 1.533 0.927 0.137 0 0.26-0.022 0.383-0.047 0.125 0.025 0.247 0.047 0.385 0.047 0.733 0 1.245-0.308 1.53-0.927 0.285-0.621 0.487-1.561 0.611-2.826l0.655-9.772c0.121-1.905 0.182-3.271 0.182-4.1 0-1.129-0.294-2.010-0.884-2.643-0.593-0.633-1.373-0.947-2.337-0.947-0.051 0-0.090 0.010-0.141 0.013-0.048-0.003-0.087-0.015-0.137-0.015-0.967 0-1.745 0.316-2.337 0.948-0.591 0.634-0.887 1.516-0.887 2.643 0 0.829 0.061 2.196 0.183 4.102l0.652 9.77zM16.025 25.871c-0.937 0-1.732 0.295-2.394 0.886-0.66 0.592-0.991 1.309-0.991 2.153 0 0.951 0.335 1.7 0.999 2.244 0.669 0.544 1.447 0.816 2.337 0.816 0.906 0 1.697-0.268 2.374-0.806 0.675-0.535 1.012-1.289 1.012-2.255 0-0.842-0.323-1.561-0.969-2.153-0.647-0.591-1.436-0.887-2.371-0.887z"></path>
</symbol>

<symbol id="icon-crossed-out-eye" viewBox="0 0 32 32">
<path fill="white" stroke="#323f47" stroke-linejoin="round" stroke-linecap="round" stroke-miterlimit="4" stroke-width="2.88" d="M23.92 23.92c-2.175 1.672-4.923 2.697-7.908 2.747l-0.012 0c-9.334 0-14.667-10.667-14.667-10.667 1.713-3.152 3.978-5.791 6.689-7.877l0.058-0.043M13.2 5.653c0.833-0.203 1.788-0.32 2.771-0.32 0.010 0 0.020 0 0.030 0h-0.002c9.333 0 14.666 10.667 14.666 10.667-0.871 1.615-1.827 3.008-2.91 4.289l0.030-0.036M18.826 18.827c-0.732 0.782-1.77 1.269-2.922 1.269-2.209 0-4-1.791-4-4 0-1.152 0.487-2.191 1.267-2.921l0.002-0.002M1.333 1.333l29.333 29.334"></path>
</symbol>

<symbol id="eye" viewBox="0 0 24 24" stroke-linecap="round" stroke-linejoin="round" height="20" width="20" xmlns="http://www.w3.org/2000/svg">
<path fill="white" stroke="#323f47" d="M1 12s4-8 11-8 11 8 11 8-4 8-11 8-11-8-11-8z"></path>
<circle cx="12" cy="12" r="3"></circle>
</symbol>

<symbol id="icon-calendar-down" viewBox="0 0 32 32">
<path stroke-linejoin="round" stroke-linecap="round" stroke-miterlimit="4" stroke-width="3.5556" d="M28.8 16c0.492 0 0.74 0 0.939 0.108 0.164 0.091 0.316 0.26 0.391 0.434 0.089 0.208 0.066 0.432 0.021 0.878-0.747 7.219-6.797 12.8-14.151 12.8-7.855 0-14.222-6.367-14.222-14.222 0-7.354 5.582-13.405 12.741-14.146l0.061-0.005c0.446-0.043 0.668-0.066 0.878 0.023 0.184 0.084 0.332 0.219 0.43 0.387l0.002 0.005c0.11 0.199 0.11 0.444 0.11 0.939v11.378c0 0.498 0 0.747 0.098 0.937 0.087 0.168 0.22 0.301 0.383 0.385l0.005 0.002c0.19 0.098 0.439 0.098 0.937 0.098h11.378z"></path>
</symbol>

<symbol id="icon-arrow-left" viewBox="0 0 32 32">
<path fill="white" stroke="#323f47" stroke-linejoin="round" stroke-linecap="round" stroke-miterlimit="4" stroke-width="3.5556" d="M20 24l-8-8 8-8"></path>
</symbol>

<symbol id="icon-arrow-right" viewBox="0 0 32 32">
<path fill="white" stroke="#323f47" stroke-linejoin="round" stroke-linecap="round" stroke-miterlimit="4" stroke-width="3.5556" d="M12 24l8-8-8-8"></path>
</symbol>

<symbol id="icon-calendar-full-icon" viewBox="0 0 32 32">
<path stroke-linejoin="round" stroke-linecap="round" stroke-miterlimit="4" stroke-width="2.6667" d="M22.933 18.667c0.369 0 0.555 0 0.704 0.083 0.123 0.067 0.237 0.195 0.293 0.324 0.067 0.157 0.049 0.324 0.016 0.659-0.559 5.415-5.098 9.601-10.613 9.601-5.891 0-10.667-4.776-10.667-10.667 0-5.516 4.187-10.054 9.556-10.61l0.046-0.004c0.335-0.033 0.501-0.051 0.659 0.016 0.138 0.063 0.249 0.164 0.322 0.29l0.002 0.003c0.083 0.151 0.083 0.335 0.083 0.704v8.533c0 0.373 0 0.56 0.073 0.703 0.065 0.126 0.165 0.226 0.287 0.289l0.004 0.002c0.143 0.073 0.329 0.073 0.703 0.073h8.533z"></path>
<path stroke-linejoin="round" stroke-linecap="round" stroke-miterlimit="4" stroke-width="2.6667" d="M18.667 3.733c0-0.369 0-0.553 0.083-0.704 0.075-0.129 0.186-0.231 0.32-0.292l0.004-0.002c0.156-0.067 0.324-0.049 0.659-0.016 5.049 0.522 9.026 4.499 9.544 9.502l0.004 0.046c0.033 0.335 0.051 0.503-0.016 0.659-0.063 0.138-0.164 0.25-0.29 0.324l-0.003 0.002c-0.151 0.081-0.335 0.081-0.704 0.081h-8.533c-0.373 0-0.56 0-0.703-0.072-0.126-0.065-0.226-0.166-0.289-0.288l-0.002-0.004c-0.073-0.143-0.073-0.329-0.073-0.703v-8.533z"></path>
</symbol>

<symbol id="icon-settings" viewBox="0 0 32 32">
<path stroke="#323f47" stroke-linejoin="round" stroke-linecap="round" stroke-miterlimit="4" stroke-width="2.8235" d="M16 19.765c2.079 0 3.765-1.686 3.765-3.765s-1.686-3.765-3.765-3.765v0c-2.079 0-3.765 1.686-3.765 3.765s1.686 3.765 3.765 3.765v0z"></path>
<path fill="white" stroke="#323f47" stroke-linejoin="round" stroke-linecap="round" stroke-miterlimit="4" stroke-width="2.8235" d="M25.286 19.765c-0.111 0.246-0.176 0.533-0.176 0.836 0 0.564 0.225 1.075 0.591 1.448l0.075 0.075c0.498 0.461 0.808 1.117 0.808 1.846 0 1.388-1.125 2.513-2.513 2.513-0.729 0-1.385-0.31-1.844-0.806l-0.002-0.002-0.075-0.075c-0.373-0.365-0.884-0.591-1.448-0.591-0.303 0-0.591 0.065-0.85 0.182l0.013-0.005c-0.742 0.324-1.252 1.050-1.256 1.895v0.213c0 1.386-1.123 2.509-2.509 2.509s-2.509-1.123-2.509-2.509v0-0.113c-0.021-0.868-0.572-1.602-1.341-1.891l-0.014-0.005c-0.246-0.111-0.533-0.176-0.836-0.176-0.564 0-1.075 0.225-1.448 0.591l-0.075 0.075c-0.455 0.46-1.086 0.745-1.784 0.745-1.386 0-2.509-1.123-2.509-2.509 0-0.35 0.072-0.684 0.202-0.987l-0.006 0.016c0.128-0.305 0.312-0.582 0.546-0.813l0.075-0.075c0.365-0.373 0.591-0.884 0.591-1.448 0-0.303-0.065-0.591-0.182-0.85l0.005 0.013c-0.324-0.741-1.050-1.251-1.895-1.254h-0.213c-1.387 0-2.511-1.124-2.511-2.511s1.124-2.511 2.511-2.511h0.113c0.867-0.021 1.6-0.573 1.889-1.341l0.005-0.014c0.111-0.246 0.176-0.533 0.176-0.836 0-0.564-0.225-1.075-0.591-1.448l-0.075-0.075c-0.454-0.455-0.735-1.082-0.735-1.776 0-1.388 1.125-2.512 2.512-2.512 0.694 0 1.322 0.281 1.777 0.736l0.075 0.075c0.373 0.365 0.884 0.591 1.448 0.591 0.303 0 0.591-0.065 0.85-0.182l-0.013 0.005h0.098c0.742-0.324 1.252-1.050 1.256-1.895v-0.213c0-1.386 1.123-2.509 2.509-2.509s2.509 1.123 2.509 2.509v0 0.113c0.003 0.846 0.513 1.572 1.242 1.89l0.013 0.005c0.246 0.111 0.533 0.176 0.836 0.176 0.564 0 1.075-0.225 1.448-0.591l0.075-0.075c0.456-0.463 1.090-0.75 1.79-0.75 1.387 0 2.511 1.124 2.511 2.511 0 0.7-0.287 1.334-0.749 1.789l-0.076 0.076c-0.365 0.373-0.591 0.884-0.591 1.448 0 0.303 0.065 0.591 0.182 0.85l-0.005-0.013v0.1c0.323 0.742 1.049 1.251 1.893 1.256h0.215c1.386 0 2.509 1.123 2.509 2.509s-1.123 2.509-2.509 2.509h-0.113c-0.846 0.003-1.572 0.513-1.89 1.242l-0.005 0.013z"></path>
<path fill="none" stroke="#323f47" stroke-linejoin="round" stroke-linecap="round" stroke-miterlimit="4" stroke-width="2.8235" d="M16 19.765c2.079 0 3.765-1.686 3.765-3.765s-1.686-3.765-3.765-3.765v0c-2.079 0-3.765 1.686-3.765 3.765s1.686 3.765 3.765 3.765v0z"></path>
    <circle cx="16" cy="16" r="5" fill="white" stroke="#323f47" stroke-width="2.8235" />
</symbol>

<symbol id="icon-log-out" viewBox="0 0 32 32">
<path fill="white" stroke="#323f47" stroke-linejoin="round" stroke-linecap="round" stroke-miterlimit="4" stroke-width="2.8235" d="M12.235 27.294h-5.020c-1.385-0.001-2.508-1.124-2.509-2.509v-17.57c0-1.386 1.123-2.509 2.509-2.509v0h5.020M21.018 22.274l6.276-6.274-6.276-6.274M27.294 16h-15.059"></path>
</symbol>

<symbol id="icon-plus" viewBox="0 0 32 32">
<path stroke="#323f47" stroke-linejoin="round" stroke-linecap="round" stroke-miterlimit="4" stroke-width="2.6667" d="M16 6.667v18.667M6.667 16h18.667"></path>
</symbol>

<symbol id="icon-edit" viewBox="0 0 32 32">
<path fill="white" stroke="#323f47" stroke-linejoin="round" stroke-linecap="round" stroke-miterlimit="4" stroke-width="3.6" d="M22.668 4c0.676-0.646 1.594-1.044 2.605-1.044 2.083 0 3.772 1.689 3.772 3.772 0 1.011-0.398 1.93-1.046 2.607l0.001-0.001-18 18-7.334 2 2-7.334 18-18z"></path>
</symbol>


<symbol id="icon-basket-delete" viewBox="0 0 32 32">
<path fill="white" stroke="#323f47" stroke-linejoin="round" stroke-linecap="round" stroke-miterlimit="4" stroke-width="3" d="M12 4h8"></path>
<path fill="white" stroke="#323f47" stroke-linejoin="round" stroke-linecap="round" stroke-miterlimit="4" stroke-width="3.6" d="M4 8h24M25.334 8l-0.936 14.026c-0.14 2.104-0.21 3.156-0.664 3.954-0.406 0.703-0.997 1.259-1.709 1.61l-0.023 0.010c-0.826 0.4-1.88 0.4-3.99 0.4h-4.024c-2.11 0-3.164 0-3.99-0.4-0.735-0.361-1.326-0.917-1.722-1.601l-0.010-0.019c-0.454-0.798-0.524-1.85-0.664-3.954l-0.936-14.026"></path>
</symbol>

<symbol id="avatar" viewBox="0 0 250 250">
<path fill="#9BE1A0" d="M128,62.4c-17.1,0-31,13.9-31,31c0,17.1,13.9,31,31,31c17.1,0,31-13.9,31-31C159,76.3,145.1,62.4,128,62.4z"/>
<path fill="#9BE1A0" d="M128,10C62.8,10,10,62.8,10,128c0,65.2,52.8,118,118,118c65.2,0,118-52.8,118-118C246,62.8,193.2,10,128,10z M182.8,189.8c-3.2,0-5.8-2.6-5.8-5.8c0-26.7-21.5-47.7-49-47.7c-27.5,0-49,20.9-49,47.7c0,3.2-2.6,5.8-5.8,5.8c-3.2,0-5.8-2.6-5.8-5.8c0-16.2,6.3-31.2,17.8-42.3c5.7-5.5,12.3-9.7,19.5-12.6c-2.4-1.6-4.7-3.4-6.8-5.5c-8-8-12.5-18.8-12.5-30.2c0-11.4,4.4-22.1,12.5-30.1c8-8,18.8-12.5,30.1-12.5s22.1,4.4,30.1,12.5c8,8.1,12.5,18.8,12.5,30.1c0,11.4-4.4,22.1-12.5,30.2c-2.1,2.1-4.4,3.9-6.8,5.5c7.2,2.9,13.8,7.1,19.5,12.6c11.5,11.1,17.8,26.2,17.8,42.3C188.7,187.2,186.1,189.8,182.8,189.8z"/></path>
</symbol>

</defs>
</svg>
