<svg aria-hidden="true" style="position: absolute; width: 0; height: 0; overflow: hidden;" version="1.1" xmlns="http://www.w3.org/2000/svg" xmlns:xlink="http://www.w3.org/1999/xlink">
<defs>
<symbol id="icon-trash-04" viewBox="0 0 32 32">
<path stroke-linejoin="round" stroke-linecap="round" stroke-miterlimit="4" stroke-width="2.9714" d="M12 4h8"></path>
<path stroke-linejoin="round" stroke-linecap="butt" stroke-miterlimit="4" stroke-width="2.9714" d="M4 8h24M25.326 8l-0.937 14.011c-0.137 2.103-0.206 3.154-0.663 3.954-0.411 0.709-1.006 1.28-1.737 1.623-0.823 0.411-1.874 0.411-3.977 0.411h-4.046c-2.103 0-3.154 0-3.977-0.411-0.731-0.343-1.326-0.914-1.737-1.623-0.457-0.8-0.526-1.851-0.663-3.954l-0.937-14.011"></path>
</symbol>
<symbol id="icon-mage_water-glass-fill" viewBox="0 0 32 32">
<path fill="#9be1a0" style="fill: var(--color1, #9be1a0)" d="M27.562 5.221c-0.102-0.336-0.267-0.626-0.482-0.87l0.002 0.003c-0.219-0.253-0.488-0.455-0.783-0.589-0.303-0.143-0.632-0.211-0.96-0.211h-18.636c-0.328-0.017-0.657 0.051-0.952 0.194-0.312 0.143-0.581 0.345-0.808 0.606-0.219 0.253-0.379 0.547-0.472 0.867-0.101 0.32-0.135 0.657-0.093 0.985l2.122 18.375c0.143 1.263 0.733 2.417 1.667 3.259 0.909 0.834 2.097 1.305 3.326 1.314h9.061c1.238-0.008 2.425-0.472 3.343-1.314 0.894-0.832 1.5-1.963 1.656-3.233l0.003-0.026 1.154-10.333v-0.152l0.893-7.874c0.051-0.337 0.034-0.674-0.042-1.002zM14.484 25.373h-1.288c-0.842-0.051-1.642-0.379-2.265-0.943-0.632-0.573-1.044-1.347-1.171-2.198l-0.312-2.257c-0.034-0.345 0.059-0.691 0.269-0.96 0.202-0.278 0.514-0.455 0.851-0.505s0.682 0.042 0.96 0.244c0.269 0.202 0.455 0.514 0.514 0.851l0.312 2.232c0.034 0.244 0.152 0.472 0.337 0.632 0.177 0.168 0.413 0.269 0.657 0.278h1.297c0.345 0 0.674 0.135 0.918 0.387 0.236 0.244 0.379 0.581 0.379 0.926s-0.143 0.682-0.379 0.926c-0.244 0.244-0.573 0.387-0.918 0.387h-0.16zM24.842 13.255c-2.728 0.539-5.061 0.64-7.528-1.314-3.074-2.451-6.787-1.667-10.358-0.379l-0.648-5.566c-0.008-0.025-0.013-0.054-0.013-0.084s0.005-0.059 0.013-0.086l-0.001 0.002c0.017-0.059 0.051-0.109 0.093-0.143 0.039-0.073 0.116-0.122 0.203-0.122 0.027 0 0.053 0.005 0.077 0.013l-0.002-0h18.804c0.042 0.025 0.093 0.067 0.126 0.109 0.042 0.034 0.067 0.084 0.076 0.143 0.025 0.059 0.025 0.118 0 0.185l-0.842 7.242z"></path>
</symbol>
<symbol id="icon-edit-2" viewBox="0 0 32 32">
<path stroke-linejoin="round" stroke-linecap="butt" stroke-miterlimit="4" stroke-width="2.9714" d="M23.886 3.177c0.457-0.206 0.937-0.297 1.44-0.297 0.48 0 0.983 0.091 1.44 0.297 0.457 0.183 0.869 0.457 1.234 0.823 0.343 0.343 0.617 0.754 0.8 1.211 0.206 0.457 0.297 0.937 0.297 1.44s-0.091 0.983-0.297 1.44c-0.183 0.457-0.457 0.891-0.8 1.234l-18.011 17.989-7.337 2.011 2.011-7.337 17.989-17.989c0.343-0.366 0.777-0.64 1.234-0.823z"></path>
</symbol>
        <symbol id="glass" viewBox="0 0 32 32">
            <path fill="#9be1a0" style="fill: var(--color1, #9be1a0)"
                d="M27.568 5.226c-0.097-0.321-0.26-0.616-0.479-0.868s-0.488-0.452-0.79-0.589c-0.3-0.142-0.627-0.214-0.958-0.21h-18.63c-0.331-0.019-0.661 0.049-0.958 0.197-0.308 0.139-0.582 0.345-0.803 0.604-0.219 0.251-0.382 0.546-0.479 0.866-0.1 0.318-0.131 0.654-0.091 0.984l2.123 18.377c0.142 1.258 0.738 2.415 1.67 3.255 0.911 0.839 2.096 1.307 3.327 1.313h9.062c1.235-0.005 2.424-0.473 3.34-1.313 0.92-0.848 1.508-2.004 1.657-3.255l1.152-10.331v-0.157l0.893-7.876c0.050-0.332 0.037-0.671-0.039-0.998zM14.492 25.375h-1.295c-0.839-0.047-1.637-0.38-2.266-0.945-0.626-0.572-1.038-1.347-1.165-2.192l-0.311-2.258c-0.040-0.344 0.055-0.69 0.264-0.965s0.515-0.455 0.854-0.503c0.338-0.048 0.682 0.040 0.957 0.246s0.46 0.512 0.515 0.854l0.311 2.232c0.035 0.244 0.154 0.467 0.337 0.63 0.181 0.168 0.415 0.266 0.66 0.276h1.295c0.343 0 0.673 0.138 0.915 0.384s0.379 0.58 0.379 0.928-0.136 0.682-0.379 0.928c-0.243 0.246-0.572 0.384-0.915 0.384h-0.155zM24.849 13.259c-2.732 0.538-5.062 0.643-7.535-1.313-3.068-2.455-6.784-1.667-10.357-0.381l-0.647-5.566c-0.013-0.056-0.013-0.114 0-0.171 0.018-0.055 0.049-0.105 0.091-0.144 0.031-0.048 0.076-0.085 0.129-0.105 0.051-0.015 0.105-0.015 0.155 0h18.798c0.049 0.028 0.092 0.063 0.13 0.105 0.039 0.039 0.065 0.091 0.078 0.144 0.020 0.060 0.020 0.124 0 0.184l-0.842 7.246z">
            </path>
        </symbol>
        <symbol id="icon-mage_water-glass-fill2" viewBox="0 0 31 32">
<path fill="#9be1a0" style="fill: var(--color1, #9be1a0)" d="M26.955 5.226c-0.095-0.321-0.254-0.616-0.468-0.868s-0.477-0.452-0.772-0.589c-0.293-0.142-0.613-0.214-0.937-0.21h-18.216c-0.323-0.019-0.646 0.049-0.937 0.197-0.301 0.139-0.57 0.345-0.785 0.604-0.214 0.251-0.374 0.546-0.468 0.866-0.098 0.318-0.128 0.654-0.089 0.984l2.076 18.377c0.139 1.258 0.722 2.415 1.633 3.255 0.891 0.839 2.050 1.307 3.253 1.313h8.861c1.207-0.005 2.37-0.473 3.266-1.313 0.899-0.848 1.475-2.004 1.62-3.255l1.127-10.331v-0.158l0.873-7.876c0.049-0.332 0.036-0.671-0.038-0.998zM14.17 25.375h-1.266c-0.82-0.047-1.601-0.38-2.215-0.945-0.612-0.572-1.015-1.347-1.139-2.192l-0.304-2.258c-0.039-0.344 0.053-0.691 0.258-0.965s0.504-0.455 0.835-0.503 0.667 0.040 0.936 0.246c0.269 0.206 0.45 0.512 0.503 0.854l0.304 2.232c0.034 0.244 0.151 0.467 0.329 0.63 0.177 0.168 0.406 0.266 0.646 0.276h1.266c0.336 0 0.658 0.138 0.895 0.384s0.371 0.58 0.371 0.928-0.133 0.682-0.371 0.928c-0.237 0.246-0.559 0.384-0.895 0.384h-0.152zM24.297 13.259c-2.671 0.538-4.949 0.643-7.367-1.313-3-2.455-6.633-1.667-10.127-0.381l-0.633-5.566c-0.012-0.056-0.012-0.114 0-0.171 0.017-0.055 0.048-0.105 0.089-0.144 0.030-0.048 0.074-0.085 0.127-0.105 0.050-0.015 0.102-0.015 0.152 0h18.38c0.047 0.028 0.090 0.063 0.127 0.105 0.038 0.039 0.063 0.091 0.076 0.144 0.019 0.060 0.019 0.124 0 0.184l-0.823 7.246z"></path>
</symbol>

</defs>
</svg>
